<svg xmlns="http://www.w3.org/2000/svg" xmlns:xlink="http://www.w3.org/1999/xlink" width="500" zoomAndPan="magnify" viewBox="0 0 375 374.999991" height="500" preserveAspectRatio="xMidYMid meet" version="1.0"><defs><g/><clipPath id="be920ea2d0"><path d="M 51.589844 144.671875 L 123.449219 144.671875 L 123.449219 216.535156 L 51.589844 216.535156 Z M 51.589844 144.671875 " clip-rule="nonzero"/></clipPath><clipPath id="6749e79a21"><path d="M 87.519531 144.671875 C 67.675781 144.671875 51.589844 160.761719 51.589844 180.605469 C 51.589844 200.449219 67.675781 216.535156 87.519531 216.535156 C 107.363281 216.535156 123.449219 200.449219 123.449219 180.605469 C 123.449219 160.761719 107.363281 144.671875 87.519531 144.671875 Z M 87.519531 144.671875 " clip-rule="nonzero"/></clipPath><clipPath id="a8bdc09ed8"><path d="M 80 159 L 113 159 L 113 193 L 80 193 Z M 80 159 " clip-rule="nonzero"/></clipPath><clipPath id="daa42ffac2"><path d="M 76.078125 162.34375 L 112.085938 154.992188 L 118.988281 188.792969 L 82.980469 196.144531 Z M 76.078125 162.34375 " clip-rule="nonzero"/></clipPath><clipPath id="076ac6f079"><path d="M 76.078125 162.34375 L 112.085938 154.992188 L 118.988281 188.792969 L 82.980469 196.144531 Z M 76.078125 162.34375 " clip-rule="nonzero"/></clipPath><clipPath id="b0568d3e1b"><path d="M 59 178 L 84 178 L 84 196 L 59 196 Z M 59 178 " clip-rule="nonzero"/></clipPath><clipPath id="32e8b3eea9"><path d="M 58.773438 177.78125 L 81.898438 175.347656 L 84.25 197.722656 L 61.128906 200.15625 Z M 58.773438 177.78125 " clip-rule="nonzero"/></clipPath><clipPath id="882efccd37"><path d="M 82.070312 175.328125 L 58.949219 177.761719 L 61.304688 200.136719 L 84.425781 197.707031 Z M 82.070312 175.328125 " clip-rule="nonzero"/></clipPath></defs><rect x="-37.5" width="450" fill="#ffffff" y="-37.499999" height="449.999989" fill-opacity="1"/><rect x="-37.5" width="450" fill="#ffffff" y="-37.499999" height="449.999989" fill-opacity="1"/><g fill="#000000" fill-opacity="1"><g transform="translate(129.59745, 192.495316)"><g><path d="M 9.625 -22.1875 C 10.800781 -22.1875 11.953125 -22.015625 13.078125 -21.671875 C 14.203125 -21.328125 15.039062 -20.988281 15.59375 -20.65625 L 16.375 -20.140625 L 14.375 -16.171875 C 14.21875 -16.273438 14 -16.410156 13.71875 -16.578125 C 13.4375 -16.742188 12.90625 -16.96875 12.125 -17.25 C 11.351562 -17.53125 10.632812 -17.671875 9.96875 -17.671875 C 9.132812 -17.671875 8.492188 -17.492188 8.046875 -17.140625 C 7.597656 -16.796875 7.375 -16.320312 7.375 -15.71875 C 7.375 -15.414062 7.476562 -15.132812 7.6875 -14.875 C 7.894531 -14.625 8.253906 -14.351562 8.765625 -14.0625 C 9.273438 -13.78125 9.722656 -13.550781 10.109375 -13.375 C 10.503906 -13.195312 11.109375 -12.929688 11.921875 -12.578125 C 13.328125 -11.972656 14.523438 -11.15625 15.515625 -10.125 C 16.515625 -9.101562 17.015625 -7.9375 17.015625 -6.625 C 17.015625 -5.375 16.789062 -4.28125 16.34375 -3.34375 C 15.894531 -2.414062 15.273438 -1.6875 14.484375 -1.15625 C 13.703125 -0.632812 12.835938 -0.25 11.890625 0 C 10.941406 0.257812 9.910156 0.390625 8.796875 0.390625 C 7.847656 0.390625 6.914062 0.289062 6 0.09375 C 5.082031 -0.09375 4.316406 -0.332031 3.703125 -0.625 C 3.085938 -0.914062 2.53125 -1.203125 2.03125 -1.484375 C 1.539062 -1.765625 1.179688 -2 0.953125 -2.1875 L 0.609375 -2.484375 L 3.09375 -6.65625 C 3.300781 -6.476562 3.585938 -6.253906 3.953125 -5.984375 C 4.328125 -5.710938 4.984375 -5.347656 5.921875 -4.890625 C 6.867188 -4.429688 7.703125 -4.203125 8.421875 -4.203125 C 10.523438 -4.203125 11.578125 -4.914062 11.578125 -6.34375 C 11.578125 -6.644531 11.5 -6.921875 11.34375 -7.171875 C 11.195312 -7.429688 10.929688 -7.6875 10.546875 -7.9375 C 10.171875 -8.195312 9.835938 -8.398438 9.546875 -8.546875 C 9.253906 -8.691406 8.78125 -8.921875 8.125 -9.234375 C 7.46875 -9.546875 6.976562 -9.78125 6.65625 -9.9375 C 5.332031 -10.582031 4.3125 -11.394531 3.59375 -12.375 C 2.875 -13.351562 2.515625 -14.40625 2.515625 -15.53125 C 2.515625 -17.488281 3.234375 -19.085938 4.671875 -20.328125 C 6.117188 -21.566406 7.769531 -22.1875 9.625 -22.1875 Z M 9.625 -22.1875 "/></g></g></g><g fill="#000000" fill-opacity="1"><g transform="translate(145.104495, 192.495316)"><g><path d="M 2.5 -1.671875 C 1.238281 -3.054688 0.609375 -4.753906 0.609375 -6.765625 C 0.609375 -8.773438 1.238281 -10.472656 2.5 -11.859375 C 3.769531 -13.253906 5.382812 -13.953125 7.34375 -13.953125 C 9.144531 -13.953125 10.625 -13.390625 11.78125 -12.265625 L 11.78125 -13.546875 L 16.453125 -13.546875 L 16.453125 0 L 11.84375 0 L 11.84375 -1.53125 L 11.78125 -1.53125 C 10.625 -0.25 9.144531 0.390625 7.34375 0.390625 C 5.382812 0.390625 3.769531 -0.296875 2.5 -1.671875 Z M 6.484375 -9.0625 C 5.878906 -8.46875 5.578125 -7.703125 5.578125 -6.765625 C 5.578125 -5.828125 5.863281 -5.0625 6.4375 -4.46875 C 7.019531 -3.882812 7.789062 -3.59375 8.75 -3.59375 C 9.664062 -3.59375 10.414062 -3.890625 11 -4.484375 C 11.59375 -5.085938 11.890625 -5.847656 11.890625 -6.765625 C 11.890625 -7.703125 11.582031 -8.46875 10.96875 -9.0625 C 10.363281 -9.664062 9.625 -9.96875 8.75 -9.96875 C 7.84375 -9.96875 7.085938 -9.664062 6.484375 -9.0625 Z M 6.484375 -9.0625 "/></g></g></g><g fill="#000000" fill-opacity="1"><g transform="translate(160.902134, 192.495316)"><g><path d="M 5.015625 -13.546875 L 8.328125 -6.1875 L 11.625 -13.546875 L 17.171875 -13.546875 L 9.90625 0 L 6.734375 0 L -0.53125 -13.546875 Z M 5.015625 -13.546875 "/></g></g></g><g fill="#000000" fill-opacity="1"><g transform="translate(175.299625, 192.495316)"><g><path d="M 2.03125 -21.109375 C 2.582031 -21.660156 3.234375 -21.9375 3.984375 -21.9375 C 4.742188 -21.9375 5.394531 -21.660156 5.9375 -21.109375 C 6.488281 -20.566406 6.765625 -19.914062 6.765625 -19.15625 C 6.765625 -18.394531 6.488281 -17.738281 5.9375 -17.1875 C 5.394531 -16.644531 4.742188 -16.375 3.984375 -16.375 C 3.234375 -16.375 2.582031 -16.644531 2.03125 -17.1875 C 1.488281 -17.738281 1.21875 -18.394531 1.21875 -19.15625 C 1.21875 -19.914062 1.488281 -20.566406 2.03125 -21.109375 Z M 1.578125 -13.546875 L 1.578125 0 L 6.265625 0 L 6.265625 -13.546875 Z M 1.578125 -13.546875 "/></g></g></g><g fill="#000000" fill-opacity="1"><g transform="translate(181.032033, 192.495316)"><g><path d="M 1.578125 0 L 1.578125 -13.546875 L 6.265625 -13.546875 L 6.265625 -12.125 L 6.3125 -12.125 C 7.53125 -13.34375 8.828125 -13.953125 10.203125 -13.953125 C 10.867188 -13.953125 11.53125 -13.863281 12.1875 -13.6875 C 12.851562 -13.507812 13.488281 -13.234375 14.09375 -12.859375 C 14.695312 -12.492188 15.1875 -11.972656 15.5625 -11.296875 C 15.945312 -10.617188 16.140625 -9.832031 16.140625 -8.9375 L 16.140625 0 L 11.46875 0 L 11.46875 -7.65625 C 11.46875 -8.363281 11.242188 -8.976562 10.796875 -9.5 C 10.347656 -10.03125 9.757812 -10.296875 9.03125 -10.296875 C 8.332031 -10.296875 7.695312 -10.023438 7.125 -9.484375 C 6.550781 -8.941406 6.265625 -8.332031 6.265625 -7.65625 L 6.265625 0 Z M 1.578125 0 "/></g></g></g><g fill="#000000" fill-opacity="1"><g transform="translate(196.248479, 192.495316)"><g><path d="M 0.984375 3.328125 L 4.8125 1.453125 C 5.507812 2.617188 6.734375 3.203125 8.484375 3.203125 C 9.296875 3.203125 10.046875 2.941406 10.734375 2.421875 C 11.429688 1.898438 11.78125 1.101562 11.78125 0.03125 L 11.78125 -0.984375 C 10.957031 -0.0664062 9.476562 0.390625 7.34375 0.390625 C 5.382812 0.390625 3.769531 -0.296875 2.5 -1.671875 C 1.238281 -3.054688 0.609375 -4.753906 0.609375 -6.765625 C 0.609375 -8.773438 1.238281 -10.472656 2.5 -11.859375 C 3.769531 -13.253906 5.382812 -13.953125 7.34375 -13.953125 C 9.09375 -13.953125 10.546875 -13.414062 11.703125 -12.34375 L 11.78125 -12.34375 L 11.78125 -13.546875 L 16.453125 -13.546875 L 16.453125 0.375 C 16.453125 2.570312 15.722656 4.269531 14.265625 5.46875 C 12.804688 6.664062 10.878906 7.265625 8.484375 7.265625 C 4.609375 7.265625 2.109375 5.953125 0.984375 3.328125 Z M 6.484375 -9.0625 C 5.878906 -8.46875 5.578125 -7.703125 5.578125 -6.765625 C 5.578125 -5.828125 5.863281 -5.0625 6.4375 -4.46875 C 7.019531 -3.882812 7.789062 -3.59375 8.75 -3.59375 C 9.664062 -3.59375 10.414062 -3.890625 11 -4.484375 C 11.59375 -5.085938 11.890625 -5.847656 11.890625 -6.765625 C 11.890625 -7.703125 11.582031 -8.46875 10.96875 -9.0625 C 10.363281 -9.664062 9.625 -9.96875 8.75 -9.96875 C 7.84375 -9.96875 7.085938 -9.664062 6.484375 -9.0625 Z M 6.484375 -9.0625 "/></g></g></g><g fill="#000000" fill-opacity="1"><g transform="translate(212.046118, 192.495316)"><g><path d="M 7.484375 -13.953125 C 8.253906 -13.953125 9.015625 -13.863281 9.765625 -13.6875 C 10.523438 -13.507812 11.09375 -13.332031 11.46875 -13.15625 L 12.015625 -12.890625 L 10.484375 -9.828125 C 9.429688 -10.390625 8.429688 -10.671875 7.484375 -10.671875 C 6.953125 -10.671875 6.578125 -10.613281 6.359375 -10.5 C 6.140625 -10.382812 6.03125 -10.171875 6.03125 -9.859375 C 6.03125 -9.785156 6.035156 -9.710938 6.046875 -9.640625 C 6.066406 -9.566406 6.101562 -9.5 6.15625 -9.4375 C 6.207031 -9.382812 6.253906 -9.332031 6.296875 -9.28125 C 6.347656 -9.238281 6.425781 -9.191406 6.53125 -9.140625 C 6.632812 -9.085938 6.71875 -9.046875 6.78125 -9.015625 C 6.84375 -8.992188 6.941406 -8.957031 7.078125 -8.90625 C 7.222656 -8.851562 7.328125 -8.8125 7.390625 -8.78125 C 7.460938 -8.757812 7.582031 -8.722656 7.75 -8.671875 C 7.914062 -8.617188 8.046875 -8.582031 8.140625 -8.5625 C 8.679688 -8.40625 9.15625 -8.226562 9.5625 -8.03125 C 9.96875 -7.832031 10.394531 -7.566406 10.84375 -7.234375 C 11.289062 -6.898438 11.640625 -6.476562 11.890625 -5.96875 C 12.140625 -5.457031 12.265625 -4.878906 12.265625 -4.234375 C 12.265625 -1.148438 10.125 0.390625 5.84375 0.390625 C 4.875 0.390625 3.953125 0.242188 3.078125 -0.046875 C 2.203125 -0.347656 1.570312 -0.648438 1.1875 -0.953125 L 0.609375 -1.421875 L 2.515625 -4.625 C 2.648438 -4.5 2.832031 -4.351562 3.0625 -4.1875 C 3.289062 -4.019531 3.703125 -3.789062 4.296875 -3.5 C 4.898438 -3.207031 5.421875 -3.0625 5.859375 -3.0625 C 6.828125 -3.0625 7.3125 -3.390625 7.3125 -4.046875 C 7.3125 -4.335938 7.1875 -4.566406 6.9375 -4.734375 C 6.695312 -4.910156 6.28125 -5.101562 5.6875 -5.3125 C 5.101562 -5.519531 4.644531 -5.710938 4.3125 -5.890625 C 3.457031 -6.328125 2.785156 -6.820312 2.296875 -7.375 C 1.804688 -7.9375 1.5625 -8.675781 1.5625 -9.59375 C 1.5625 -10.96875 2.09375 -12.035156 3.15625 -12.796875 C 4.21875 -13.566406 5.660156 -13.953125 7.484375 -13.953125 Z M 7.484375 -13.953125 "/></g></g></g><g fill="#000000" fill-opacity="1"><g transform="translate(222.797931, 192.495316)"><g><path d="M 13.1875 -4.484375 C 13.945312 -4.484375 14.679688 -4.597656 15.390625 -4.828125 C 16.097656 -5.054688 16.625 -5.28125 16.96875 -5.5 L 17.46875 -5.84375 L 19.578125 -1.609375 C 19.503906 -1.554688 19.40625 -1.484375 19.28125 -1.390625 C 19.164062 -1.304688 18.878906 -1.144531 18.421875 -0.90625 C 17.972656 -0.675781 17.492188 -0.472656 16.984375 -0.296875 C 16.472656 -0.117188 15.800781 0.0351562 14.96875 0.171875 C 14.144531 0.316406 13.296875 0.390625 12.421875 0.390625 C 10.390625 0.390625 8.46875 -0.101562 6.65625 -1.09375 C 4.84375 -2.09375 3.378906 -3.460938 2.265625 -5.203125 C 1.160156 -6.953125 0.609375 -8.835938 0.609375 -10.859375 C 0.609375 -12.390625 0.929688 -13.859375 1.578125 -15.265625 C 2.234375 -16.679688 3.101562 -17.890625 4.1875 -18.890625 C 5.269531 -19.890625 6.53125 -20.6875 7.96875 -21.28125 C 9.414062 -21.882812 10.898438 -22.1875 12.421875 -22.1875 C 13.828125 -22.1875 15.125 -22.019531 16.3125 -21.6875 C 17.5 -21.351562 18.34375 -21.019531 18.84375 -20.6875 L 19.578125 -20.1875 L 17.46875 -15.953125 C 17.34375 -16.066406 17.15625 -16.195312 16.90625 -16.34375 C 16.664062 -16.488281 16.175781 -16.6875 15.4375 -16.9375 C 14.695312 -17.1875 13.945312 -17.3125 13.1875 -17.3125 C 11.988281 -17.3125 10.910156 -17.113281 9.953125 -16.71875 C 9.003906 -16.332031 8.253906 -15.820312 7.703125 -15.1875 C 7.148438 -14.550781 6.726562 -13.867188 6.4375 -13.140625 C 6.144531 -12.410156 6 -11.664062 6 -10.90625 C 6 -9.25 6.617188 -7.765625 7.859375 -6.453125 C 9.097656 -5.140625 10.875 -4.484375 13.1875 -4.484375 Z M 13.1875 -4.484375 "/></g></g></g><g fill="#000000" fill-opacity="1"><g transform="translate(240.444826, 192.495316)"><g><path d="M 2.5 -1.671875 C 1.238281 -3.054688 0.609375 -4.753906 0.609375 -6.765625 C 0.609375 -8.773438 1.238281 -10.472656 2.5 -11.859375 C 3.769531 -13.253906 5.382812 -13.953125 7.34375 -13.953125 C 9.144531 -13.953125 10.625 -13.390625 11.78125 -12.265625 L 11.78125 -13.546875 L 16.453125 -13.546875 L 16.453125 0 L 11.84375 0 L 11.84375 -1.53125 L 11.78125 -1.53125 C 10.625 -0.25 9.144531 0.390625 7.34375 0.390625 C 5.382812 0.390625 3.769531 -0.296875 2.5 -1.671875 Z M 6.484375 -9.0625 C 5.878906 -8.46875 5.578125 -7.703125 5.578125 -6.765625 C 5.578125 -5.828125 5.863281 -5.0625 6.4375 -4.46875 C 7.019531 -3.882812 7.789062 -3.59375 8.75 -3.59375 C 9.664062 -3.59375 10.414062 -3.890625 11 -4.484375 C 11.59375 -5.085938 11.890625 -5.847656 11.890625 -6.765625 C 11.890625 -7.703125 11.582031 -8.46875 10.96875 -9.0625 C 10.363281 -9.664062 9.625 -9.96875 8.75 -9.96875 C 7.84375 -9.96875 7.085938 -9.664062 6.484375 -9.0625 Z M 6.484375 -9.0625 "/></g></g></g><g fill="#000000" fill-opacity="1"><g transform="translate(256.24246, 192.495316)"><g><path d="M 15.53125 -11.875 C 16.800781 -10.488281 17.4375 -8.789062 17.4375 -6.78125 C 17.4375 -4.78125 16.800781 -3.082031 15.53125 -1.6875 C 14.269531 -0.300781 12.660156 0.390625 10.703125 0.390625 C 8.898438 0.390625 7.421875 -0.171875 6.265625 -1.296875 L 6.265625 6.875 L 1.578125 6.875 L 1.578125 -13.546875 L 6.203125 -13.546875 L 6.203125 -12.015625 L 6.265625 -12.015625 C 7.421875 -13.304688 8.898438 -13.953125 10.703125 -13.953125 C 12.660156 -13.953125 14.269531 -13.257812 15.53125 -11.875 Z M 11.546875 -4.484375 C 12.160156 -5.085938 12.46875 -5.851562 12.46875 -6.78125 C 12.46875 -7.71875 12.175781 -8.484375 11.59375 -9.078125 C 11.019531 -9.671875 10.253906 -9.96875 9.296875 -9.96875 C 8.378906 -9.96875 7.625 -9.664062 7.03125 -9.0625 C 6.445312 -8.46875 6.15625 -7.710938 6.15625 -6.796875 C 6.15625 -5.859375 6.457031 -5.085938 7.0625 -4.484375 C 7.675781 -3.890625 8.421875 -3.59375 9.296875 -3.59375 C 10.191406 -3.59375 10.941406 -3.890625 11.546875 -4.484375 Z M 11.546875 -4.484375 "/></g></g></g><g fill="#000000" fill-opacity="1"><g transform="translate(272.040094, 192.495316)"><g><path d="M 7.484375 -13.953125 C 8.253906 -13.953125 9.015625 -13.863281 9.765625 -13.6875 C 10.523438 -13.507812 11.09375 -13.332031 11.46875 -13.15625 L 12.015625 -12.890625 L 10.484375 -9.828125 C 9.429688 -10.390625 8.429688 -10.671875 7.484375 -10.671875 C 6.953125 -10.671875 6.578125 -10.613281 6.359375 -10.5 C 6.140625 -10.382812 6.03125 -10.171875 6.03125 -9.859375 C 6.03125 -9.785156 6.035156 -9.710938 6.046875 -9.640625 C 6.066406 -9.566406 6.101562 -9.5 6.15625 -9.4375 C 6.207031 -9.382812 6.253906 -9.332031 6.296875 -9.28125 C 6.347656 -9.238281 6.425781 -9.191406 6.53125 -9.140625 C 6.632812 -9.085938 6.71875 -9.046875 6.78125 -9.015625 C 6.84375 -8.992188 6.941406 -8.957031 7.078125 -8.90625 C 7.222656 -8.851562 7.328125 -8.8125 7.390625 -8.78125 C 7.460938 -8.757812 7.582031 -8.722656 7.75 -8.671875 C 7.914062 -8.617188 8.046875 -8.582031 8.140625 -8.5625 C 8.679688 -8.40625 9.15625 -8.226562 9.5625 -8.03125 C 9.96875 -7.832031 10.394531 -7.566406 10.84375 -7.234375 C 11.289062 -6.898438 11.640625 -6.476562 11.890625 -5.96875 C 12.140625 -5.457031 12.265625 -4.878906 12.265625 -4.234375 C 12.265625 -1.148438 10.125 0.390625 5.84375 0.390625 C 4.875 0.390625 3.953125 0.242188 3.078125 -0.046875 C 2.203125 -0.347656 1.570312 -0.648438 1.1875 -0.953125 L 0.609375 -1.421875 L 2.515625 -4.625 C 2.648438 -4.5 2.832031 -4.351562 3.0625 -4.1875 C 3.289062 -4.019531 3.703125 -3.789062 4.296875 -3.5 C 4.898438 -3.207031 5.421875 -3.0625 5.859375 -3.0625 C 6.828125 -3.0625 7.3125 -3.390625 7.3125 -4.046875 C 7.3125 -4.335938 7.1875 -4.566406 6.9375 -4.734375 C 6.695312 -4.910156 6.28125 -5.101562 5.6875 -5.3125 C 5.101562 -5.519531 4.644531 -5.710938 4.3125 -5.890625 C 3.457031 -6.328125 2.785156 -6.820312 2.296875 -7.375 C 1.804688 -7.9375 1.5625 -8.675781 1.5625 -9.59375 C 1.5625 -10.96875 2.09375 -12.035156 3.15625 -12.796875 C 4.21875 -13.566406 5.660156 -13.953125 7.484375 -13.953125 Z M 7.484375 -13.953125 "/></g></g></g><g fill="#000000" fill-opacity="1"><g transform="translate(282.791912, 192.495316)"><g><path d="M 6 -13.546875 L 6 -7.109375 C 6 -5.765625 6.203125 -4.8125 6.609375 -4.25 C 7.015625 -3.6875 7.703125 -3.40625 8.671875 -3.40625 C 9.640625 -3.40625 10.320312 -3.6875 10.71875 -4.25 C 11.125 -4.8125 11.328125 -5.765625 11.328125 -7.109375 L 11.328125 -13.546875 L 16.015625 -13.546875 L 16.015625 -5.96875 C 16.015625 -3.71875 15.425781 -2.09375 14.25 -1.09375 C 13.082031 -0.101562 11.21875 0.390625 8.65625 0.390625 C 6.101562 0.390625 4.242188 -0.101562 3.078125 -1.09375 C 1.910156 -2.09375 1.328125 -3.71875 1.328125 -5.96875 L 1.328125 -13.546875 Z M 6 -13.546875 "/></g></g></g><g fill="#000000" fill-opacity="1"><g transform="translate(297.876261, 192.495316)"><g><path d="M 1.578125 0 L 1.578125 -22.71875 L 6.265625 -22.71875 L 6.265625 0 Z M 1.578125 0 "/></g></g></g><g fill="#000000" fill-opacity="1"><g transform="translate(303.476578, 192.495316)"><g><path d="M 15.296875 -6.125 L 5.46875 -6.125 C 5.46875 -5.175781 5.773438 -4.472656 6.390625 -4.015625 C 7.003906 -3.554688 7.675781 -3.328125 8.40625 -3.328125 C 9.15625 -3.328125 9.75 -3.425781 10.1875 -3.625 C 10.632812 -3.832031 11.140625 -4.234375 11.703125 -4.828125 L 15.09375 -3.140625 C 13.675781 -0.785156 11.332031 0.390625 8.0625 0.390625 C 6.019531 0.390625 4.265625 -0.304688 2.796875 -1.703125 C 1.335938 -3.109375 0.609375 -4.796875 0.609375 -6.765625 C 0.609375 -8.734375 1.335938 -10.421875 2.796875 -11.828125 C 4.265625 -13.242188 6.019531 -13.953125 8.0625 -13.953125 C 10.207031 -13.953125 11.953125 -13.328125 13.296875 -12.078125 C 14.648438 -10.835938 15.328125 -9.066406 15.328125 -6.765625 C 15.328125 -6.441406 15.316406 -6.226562 15.296875 -6.125 Z M 5.59375 -8.71875 L 10.75 -8.71875 C 10.644531 -9.425781 10.367188 -9.96875 9.921875 -10.34375 C 9.472656 -10.71875 8.894531 -10.90625 8.1875 -10.90625 C 7.414062 -10.90625 6.800781 -10.703125 6.34375 -10.296875 C 5.882812 -9.898438 5.632812 -9.375 5.59375 -8.71875 Z M 5.59375 -8.71875 "/></g></g></g><g fill="#000000" fill-opacity="1"><g transform="translate(317.160789, 192.495316)"><g/></g></g><g fill="#000000" fill-opacity="1"><g transform="translate(322.127074, 192.495316)"><g><path d="M 4.59375 -5.65625 C 5.4375 -5.65625 6.15625 -5.359375 6.75 -4.765625 C 7.34375 -4.179688 7.640625 -3.460938 7.640625 -2.609375 C 7.640625 -1.785156 7.34375 -1.078125 6.75 -0.484375 C 6.15625 0.0976562 5.4375 0.390625 4.59375 0.390625 C 3.769531 0.390625 3.0625 0.0976562 2.46875 -0.484375 C 1.875 -1.078125 1.578125 -1.785156 1.578125 -2.609375 C 1.578125 -3.460938 1.875 -4.179688 2.46875 -4.765625 C 3.0625 -5.359375 3.769531 -5.65625 4.59375 -5.65625 Z M 4.59375 -5.65625 "/></g></g></g><g clip-path="url(#be920ea2d0)"><g clip-path="url(#6749e79a21)"><path fill="#000000" d="M 51.589844 144.671875 L 123.449219 144.671875 L 123.449219 216.535156 L 51.589844 216.535156 Z M 51.589844 144.671875 " fill-opacity="1" fill-rule="nonzero"/></g></g><g clip-path="url(#a8bdc09ed8)"><g clip-path="url(#daa42ffac2)"><g clip-path="url(#076ac6f079)"><path fill="#00bf63" d="M 105.273438 162.65625 C 88.285156 166.050781 80.773438 175.761719 83.3125 192.175781 C 83.34375 192.382812 83.046875 192.457031 82.976562 192.261719 C 81.132812 187.105469 80.292969 182.234375 80.792969 177.746094 C 82.449219 162.945312 99.203125 157.625 112.257812 159.539062 C 112.90625 159.632812 113.1875 160.382812 112.765625 160.882812 C 104.820312 170.332031 110.292969 190.566406 85.40625 186.394531 C 86.742188 174.5625 92.726562 166.175781 105.273438 162.65625 " fill-opacity="1" fill-rule="evenodd"/></g></g></g><g clip-path="url(#b0568d3e1b)"><g clip-path="url(#32e8b3eea9)"><g clip-path="url(#882efccd37)"><path fill="#00bf63" d="M 64.53125 181.207031 C 75.429688 180.007812 81.828125 184.59375 83.460938 195.300781 C 83.480469 195.433594 83.675781 195.421875 83.679688 195.285156 C 83.796875 191.71875 83.367188 188.523438 82.199219 185.832031 C 78.347656 176.941406 67.222656 176.890625 59.722656 180.625 C 59.347656 180.808594 59.324219 181.328125 59.675781 181.558594 C 66.285156 185.890625 66.886719 199.546875 81.085938 192.109375 C 77.996094 185.007812 72.773438 180.953125 64.53125 181.207031 " fill-opacity="1" fill-rule="evenodd"/></g></g></g></svg>