<svg xmlns="http://www.w3.org/2000/svg" xmlns:xlink="http://www.w3.org/1999/xlink" width="500" zoomAndPan="magnify" viewBox="0 0 375 374.999991" height="500" preserveAspectRatio="xMidYMid meet" version="1.0"><defs><g/><clipPath id="2acf942852"><path d="M 33 128 L 66 128 L 66 162 L 33 162 Z M 33 128 " clip-rule="nonzero"/></clipPath><clipPath id="2b446dc324"><path d="M 28.777344 131.507812 L 64.785156 124.152344 L 71.6875 157.957031 L 35.679688 165.308594 Z M 28.777344 131.507812 " clip-rule="nonzero"/></clipPath><clipPath id="74873621b6"><path d="M 28.777344 131.507812 L 64.785156 124.152344 L 71.6875 157.957031 L 35.679688 165.308594 Z M 28.777344 131.507812 " clip-rule="nonzero"/></clipPath><clipPath id="606ff7e171"><path d="M 12 143 L 37 143 L 37 162 L 12 162 Z M 12 143 " clip-rule="nonzero"/></clipPath><clipPath id="1b643c2ed7"><path d="M 11.871094 143.410156 L 34.992188 140.976562 L 37.34375 163.355469 L 14.222656 165.785156 Z M 11.871094 143.410156 " clip-rule="nonzero"/></clipPath><clipPath id="3db3f5925a"><path d="M 35.167969 140.957031 L 12.042969 143.390625 L 14.398438 165.769531 L 37.519531 163.335938 Z M 35.167969 140.957031 " clip-rule="nonzero"/></clipPath></defs><g clip-path="url(#2acf942852)"><g clip-path="url(#2b446dc324)"><g clip-path="url(#74873621b6)"><path fill="#00bf63" d="M 57.976562 131.820312 C 40.984375 135.210938 33.472656 144.925781 36.015625 161.339844 C 36.046875 161.546875 35.746094 161.621094 35.675781 161.421875 C 33.835938 156.265625 32.992188 151.398438 33.492188 146.910156 C 35.148438 132.105469 51.90625 126.789062 64.957031 128.699219 C 65.605469 128.796875 65.886719 129.542969 65.464844 130.046875 C 57.519531 139.492188 62.996094 159.726562 38.105469 155.554688 C 39.445312 143.722656 45.429688 135.339844 57.976562 131.820312 " fill-opacity="1" fill-rule="evenodd"/></g></g></g><g clip-path="url(#606ff7e171)"><g clip-path="url(#1b643c2ed7)"><g clip-path="url(#3db3f5925a)"><path fill="#00bf63" d="M 17.628906 146.835938 C 28.523438 145.640625 34.921875 150.222656 36.554688 160.929688 C 36.574219 161.066406 36.769531 161.050781 36.773438 160.917969 C 36.890625 157.347656 36.460938 154.15625 35.292969 151.460938 C 31.441406 142.570312 20.316406 142.523438 12.816406 146.253906 C 12.445312 146.4375 12.417969 146.960938 12.769531 147.191406 C 19.378906 151.523438 19.980469 165.179688 34.179688 157.738281 C 31.089844 150.636719 25.867188 146.582031 17.628906 146.835938 " fill-opacity="1" fill-rule="evenodd"/></g></g></g><g fill="#000000" fill-opacity="1"><g transform="translate(24.258534, 191.953886)"><g><path d="M 16.21875 -37.453125 C 18.21875 -37.453125 20.164062 -37.160156 22.0625 -36.578125 C 23.96875 -35.992188 25.378906 -35.421875 26.296875 -34.859375 L 27.640625 -33.96875 L 24.25 -27.28125 C 23.976562 -27.457031 23.601562 -27.6875 23.125 -27.96875 C 22.65625 -28.25 21.765625 -28.628906 20.453125 -29.109375 C 19.148438 -29.585938 17.9375 -29.828125 16.8125 -29.828125 C 15.40625 -29.828125 14.320312 -29.53125 13.5625 -28.9375 C 12.8125 -28.34375 12.4375 -27.539062 12.4375 -26.53125 C 12.4375 -26.019531 12.613281 -25.546875 12.96875 -25.109375 C 13.320312 -24.679688 13.929688 -24.222656 14.796875 -23.734375 C 15.660156 -23.242188 16.414062 -22.847656 17.0625 -22.546875 C 17.71875 -22.253906 18.734375 -21.8125 20.109375 -21.21875 C 22.484375 -20.207031 24.507812 -18.832031 26.1875 -17.09375 C 27.863281 -15.351562 28.703125 -13.382812 28.703125 -11.1875 C 28.703125 -9.082031 28.320312 -7.238281 27.5625 -5.65625 C 26.8125 -4.082031 25.773438 -2.847656 24.453125 -1.953125 C 23.128906 -1.066406 21.664062 -0.410156 20.0625 0.015625 C 18.457031 0.453125 16.71875 0.671875 14.84375 0.671875 C 13.238281 0.671875 11.660156 0.503906 10.109375 0.171875 C 8.566406 -0.148438 7.273438 -0.554688 6.234375 -1.046875 C 5.203125 -1.535156 4.269531 -2.015625 3.4375 -2.484375 C 2.601562 -2.960938 1.992188 -3.367188 1.609375 -3.703125 L 1.03125 -4.1875 L 5.21875 -11.234375 C 5.570312 -10.929688 6.0625 -10.550781 6.6875 -10.09375 C 7.3125 -9.632812 8.414062 -9.019531 10 -8.25 C 11.59375 -7.476562 13 -7.09375 14.21875 -7.09375 C 17.757812 -7.09375 19.53125 -8.296875 19.53125 -10.703125 C 19.53125 -11.203125 19.398438 -11.664062 19.140625 -12.09375 C 18.890625 -12.53125 18.441406 -12.960938 17.796875 -13.390625 C 17.160156 -13.828125 16.597656 -14.171875 16.109375 -14.421875 C 15.617188 -14.671875 14.816406 -15.054688 13.703125 -15.578125 C 12.585938 -16.097656 11.765625 -16.492188 11.234375 -16.765625 C 9.003906 -17.859375 7.28125 -19.226562 6.0625 -20.875 C 4.84375 -22.53125 4.234375 -24.3125 4.234375 -26.21875 C 4.234375 -29.507812 5.453125 -32.203125 7.890625 -34.296875 C 10.328125 -36.398438 13.101562 -37.453125 16.21875 -37.453125 Z M 16.21875 -37.453125 "/></g></g></g><g fill="#000000" fill-opacity="1"><g transform="translate(50.419656, 191.953886)"><g><path d="M 4.234375 -2.828125 C 2.097656 -5.160156 1.03125 -8.019531 1.03125 -11.40625 C 1.03125 -14.800781 2.097656 -17.671875 4.234375 -20.015625 C 6.367188 -22.359375 9.085938 -23.53125 12.390625 -23.53125 C 15.421875 -23.53125 17.914062 -22.582031 19.875 -20.6875 L 19.875 -22.875 L 27.765625 -22.875 L 27.765625 0 L 19.96875 0 L 19.96875 -2.578125 L 19.875 -2.578125 C 17.914062 -0.410156 15.421875 0.671875 12.390625 0.671875 C 9.085938 0.671875 6.367188 -0.492188 4.234375 -2.828125 Z M 10.9375 -15.296875 C 9.914062 -14.285156 9.40625 -12.988281 9.40625 -11.40625 C 9.40625 -9.832031 9.894531 -8.546875 10.875 -7.546875 C 11.851562 -6.554688 13.144531 -6.0625 14.75 -6.0625 C 16.300781 -6.0625 17.570312 -6.566406 18.5625 -7.578125 C 19.5625 -8.585938 20.0625 -9.863281 20.0625 -11.40625 C 20.0625 -12.988281 19.546875 -14.285156 18.515625 -15.296875 C 17.492188 -16.304688 16.238281 -16.8125 14.75 -16.8125 C 13.238281 -16.8125 11.96875 -16.304688 10.9375 -15.296875 Z M 10.9375 -15.296875 "/></g></g></g><g fill="#000000" fill-opacity="1"><g transform="translate(77.071024, 191.953886)"><g><path d="M 8.46875 -22.875 L 14.046875 -10.4375 L 19.609375 -22.875 L 28.96875 -22.875 L 16.71875 0 L 11.375 0 L -0.890625 -22.875 Z M 8.46875 -22.875 "/></g></g></g><g fill="#000000" fill-opacity="1"><g transform="translate(101.360276, 191.953886)"><g><path d="M 3.421875 -35.609375 C 4.347656 -36.535156 5.445312 -37 6.71875 -37 C 8 -37 9.097656 -36.535156 10.015625 -35.609375 C 10.941406 -34.691406 11.40625 -33.59375 11.40625 -32.3125 C 11.40625 -31.039062 10.941406 -29.941406 10.015625 -29.015625 C 9.097656 -28.097656 8 -27.640625 6.71875 -27.640625 C 5.445312 -27.640625 4.347656 -28.097656 3.421875 -29.015625 C 2.503906 -29.941406 2.046875 -31.039062 2.046875 -32.3125 C 2.046875 -33.59375 2.503906 -34.691406 3.421875 -35.609375 Z M 2.671875 -22.875 L 2.671875 0 L 10.5625 0 L 10.5625 -22.875 Z M 2.671875 -22.875 "/></g></g></g><g fill="#000000" fill-opacity="1"><g transform="translate(111.03112, 191.953886)"><g><path d="M 2.671875 0 L 2.671875 -22.875 L 10.5625 -22.875 L 10.5625 -20.46875 L 10.65625 -20.46875 C 12.707031 -22.507812 14.890625 -23.53125 17.203125 -23.53125 C 18.335938 -23.53125 19.460938 -23.378906 20.578125 -23.078125 C 21.691406 -22.785156 22.757812 -22.328125 23.78125 -21.703125 C 24.8125 -21.078125 25.644531 -20.191406 26.28125 -19.046875 C 26.914062 -17.910156 27.234375 -16.582031 27.234375 -15.0625 L 27.234375 0 L 19.34375 0 L 19.34375 -12.921875 C 19.34375 -14.109375 18.960938 -15.148438 18.203125 -16.046875 C 17.453125 -16.941406 16.46875 -17.390625 15.25 -17.390625 C 14.0625 -17.390625 12.984375 -16.925781 12.015625 -16 C 11.046875 -15.082031 10.5625 -14.054688 10.5625 -12.921875 L 10.5625 0 Z M 2.671875 0 "/></g></g></g><g fill="#000000" fill-opacity="1"><g transform="translate(136.701988, 191.953886)"><g><path d="M 1.65625 5.609375 L 8.109375 2.453125 C 9.296875 4.410156 11.363281 5.390625 14.3125 5.390625 C 15.675781 5.390625 16.941406 4.953125 18.109375 4.078125 C 19.285156 3.203125 19.875 1.859375 19.875 0.046875 L 19.875 -1.65625 C 18.476562 -0.101562 15.984375 0.671875 12.390625 0.671875 C 9.085938 0.671875 6.367188 -0.492188 4.234375 -2.828125 C 2.097656 -5.160156 1.03125 -8.019531 1.03125 -11.40625 C 1.03125 -14.800781 2.097656 -17.671875 4.234375 -20.015625 C 6.367188 -22.359375 9.085938 -23.53125 12.390625 -23.53125 C 15.335938 -23.53125 17.789062 -22.625 19.75 -20.8125 L 19.875 -20.8125 L 19.875 -22.875 L 27.765625 -22.875 L 27.765625 0.625 C 27.765625 4.34375 26.53125 7.210938 24.0625 9.234375 C 21.601562 11.253906 18.351562 12.265625 14.3125 12.265625 C 7.769531 12.265625 3.550781 10.046875 1.65625 5.609375 Z M 10.9375 -15.296875 C 9.914062 -14.285156 9.40625 -12.988281 9.40625 -11.40625 C 9.40625 -9.832031 9.894531 -8.546875 10.875 -7.546875 C 11.851562 -6.554688 13.144531 -6.0625 14.75 -6.0625 C 16.300781 -6.0625 17.570312 -6.566406 18.5625 -7.578125 C 19.5625 -8.585938 20.0625 -9.863281 20.0625 -11.40625 C 20.0625 -12.988281 19.546875 -14.285156 18.515625 -15.296875 C 17.492188 -16.304688 16.238281 -16.8125 14.75 -16.8125 C 13.238281 -16.8125 11.96875 -16.304688 10.9375 -15.296875 Z M 10.9375 -15.296875 "/></g></g></g><g fill="#000000" fill-opacity="1"><g transform="translate(163.353356, 191.953886)"><g><path d="M 12.609375 -23.53125 C 13.921875 -23.53125 15.210938 -23.378906 16.484375 -23.078125 C 17.765625 -22.785156 18.71875 -22.492188 19.34375 -22.203125 L 20.28125 -21.75 L 17.703125 -16.578125 C 15.910156 -17.535156 14.210938 -18.015625 12.609375 -18.015625 C 11.722656 -18.015625 11.09375 -17.914062 10.71875 -17.71875 C 10.34375 -17.53125 10.15625 -17.164062 10.15625 -16.625 C 10.15625 -16.507812 10.171875 -16.390625 10.203125 -16.265625 C 10.234375 -16.148438 10.289062 -16.039062 10.375 -15.9375 C 10.46875 -15.832031 10.550781 -15.742188 10.625 -15.671875 C 10.707031 -15.597656 10.835938 -15.515625 11.015625 -15.421875 C 11.191406 -15.335938 11.332031 -15.269531 11.4375 -15.21875 C 11.539062 -15.175781 11.707031 -15.109375 11.9375 -15.015625 C 12.175781 -14.929688 12.351562 -14.863281 12.46875 -14.8125 C 12.59375 -14.769531 12.796875 -14.703125 13.078125 -14.609375 C 13.359375 -14.523438 13.578125 -14.46875 13.734375 -14.4375 C 14.648438 -14.175781 15.445312 -13.878906 16.125 -13.546875 C 16.8125 -13.222656 17.535156 -12.78125 18.296875 -12.21875 C 19.054688 -11.65625 19.644531 -10.941406 20.0625 -10.078125 C 20.476562 -9.210938 20.6875 -8.226562 20.6875 -7.125 C 20.6875 -1.925781 17.078125 0.671875 9.859375 0.671875 C 8.222656 0.671875 6.664062 0.421875 5.1875 -0.078125 C 3.71875 -0.585938 2.65625 -1.097656 2 -1.609375 L 1.03125 -2.40625 L 4.234375 -7.796875 C 4.472656 -7.585938 4.785156 -7.34375 5.171875 -7.0625 C 5.554688 -6.78125 6.253906 -6.394531 7.265625 -5.90625 C 8.273438 -5.414062 9.148438 -5.171875 9.890625 -5.171875 C 11.523438 -5.171875 12.34375 -5.722656 12.34375 -6.828125 C 12.34375 -7.328125 12.132812 -7.71875 11.71875 -8 C 11.300781 -8.28125 10.59375 -8.597656 9.59375 -8.953125 C 8.601562 -9.316406 7.828125 -9.644531 7.265625 -9.9375 C 5.835938 -10.6875 4.707031 -11.523438 3.875 -12.453125 C 3.039062 -13.390625 2.625 -14.632812 2.625 -16.1875 C 2.625 -18.5 3.523438 -20.300781 5.328125 -21.59375 C 7.128906 -22.882812 9.554688 -23.53125 12.609375 -23.53125 Z M 12.609375 -23.53125 "/></g></g></g><g fill="#000000" fill-opacity="1"><g transform="translate(181.492175, 191.953886)"><g><path d="M 22.25 -7.578125 C 23.519531 -7.578125 24.753906 -7.769531 25.953125 -8.15625 C 27.160156 -8.539062 28.050781 -8.910156 28.625 -9.265625 L 29.46875 -9.859375 L 33.03125 -2.71875 C 32.914062 -2.625 32.753906 -2.503906 32.546875 -2.359375 C 32.335938 -2.210938 31.851562 -1.9375 31.09375 -1.53125 C 30.332031 -1.132812 29.519531 -0.785156 28.65625 -0.484375 C 27.800781 -0.191406 26.675781 0.0703125 25.28125 0.3125 C 23.882812 0.550781 22.441406 0.671875 20.953125 0.671875 C 17.535156 0.671875 14.296875 -0.164062 11.234375 -1.84375 C 8.171875 -3.53125 5.703125 -5.84375 3.828125 -8.78125 C 1.960938 -11.71875 1.03125 -14.898438 1.03125 -18.328125 C 1.03125 -20.910156 1.578125 -23.390625 2.671875 -25.765625 C 3.773438 -28.140625 5.238281 -30.175781 7.0625 -31.875 C 8.894531 -33.570312 11.03125 -34.925781 13.46875 -35.9375 C 15.90625 -36.945312 18.398438 -37.453125 20.953125 -37.453125 C 23.328125 -37.453125 25.515625 -37.164062 27.515625 -36.59375 C 29.523438 -36.03125 30.945312 -35.46875 31.78125 -34.90625 L 33.03125 -34.0625 L 29.46875 -26.921875 C 29.257812 -27.097656 28.945312 -27.3125 28.53125 -27.5625 C 28.113281 -27.820312 27.28125 -28.160156 26.03125 -28.578125 C 24.78125 -28.992188 23.519531 -29.203125 22.25 -29.203125 C 20.226562 -29.203125 18.414062 -28.875 16.8125 -28.21875 C 15.207031 -27.5625 13.9375 -26.695312 13 -25.625 C 12.0625 -24.5625 11.347656 -23.410156 10.859375 -22.171875 C 10.367188 -20.941406 10.125 -19.6875 10.125 -18.40625 C 10.125 -15.613281 11.171875 -13.109375 13.265625 -10.890625 C 15.359375 -8.679688 18.351562 -7.578125 22.25 -7.578125 Z M 22.25 -7.578125 "/></g></g></g><g fill="#000000" fill-opacity="1"><g transform="translate(211.263325, 191.953886)"><g><path d="M 4.234375 -2.828125 C 2.097656 -5.160156 1.03125 -8.019531 1.03125 -11.40625 C 1.03125 -14.800781 2.097656 -17.671875 4.234375 -20.015625 C 6.367188 -22.359375 9.085938 -23.53125 12.390625 -23.53125 C 15.421875 -23.53125 17.914062 -22.582031 19.875 -20.6875 L 19.875 -22.875 L 27.765625 -22.875 L 27.765625 0 L 19.96875 0 L 19.96875 -2.578125 L 19.875 -2.578125 C 17.914062 -0.410156 15.421875 0.671875 12.390625 0.671875 C 9.085938 0.671875 6.367188 -0.492188 4.234375 -2.828125 Z M 10.9375 -15.296875 C 9.914062 -14.285156 9.40625 -12.988281 9.40625 -11.40625 C 9.40625 -9.832031 9.894531 -8.546875 10.875 -7.546875 C 11.851562 -6.554688 13.144531 -6.0625 14.75 -6.0625 C 16.300781 -6.0625 17.570312 -6.566406 18.5625 -7.578125 C 19.5625 -8.585938 20.0625 -9.863281 20.0625 -11.40625 C 20.0625 -12.988281 19.546875 -14.285156 18.515625 -15.296875 C 17.492188 -16.304688 16.238281 -16.8125 14.75 -16.8125 C 13.238281 -16.8125 11.96875 -16.304688 10.9375 -15.296875 Z M 10.9375 -15.296875 "/></g></g></g><g fill="#000000" fill-opacity="1"><g transform="translate(237.914685, 191.953886)"><g><path d="M 26.203125 -20.03125 C 28.347656 -17.695312 29.421875 -14.835938 29.421875 -11.453125 C 29.421875 -8.066406 28.347656 -5.195312 26.203125 -2.84375 C 24.066406 -0.5 21.347656 0.671875 18.046875 0.671875 C 15.015625 0.671875 12.519531 -0.28125 10.5625 -2.1875 L 10.5625 11.59375 L 2.671875 11.59375 L 2.671875 -22.875 L 10.46875 -22.875 L 10.46875 -20.28125 L 10.5625 -20.28125 C 12.519531 -22.445312 15.015625 -23.53125 18.046875 -23.53125 C 21.347656 -23.53125 24.066406 -22.363281 26.203125 -20.03125 Z M 19.5 -7.578125 C 20.53125 -8.585938 21.046875 -9.878906 21.046875 -11.453125 C 21.046875 -13.023438 20.550781 -14.3125 19.5625 -15.3125 C 18.582031 -16.3125 17.289062 -16.8125 15.6875 -16.8125 C 14.144531 -16.8125 12.875 -16.304688 11.875 -15.296875 C 10.882812 -14.285156 10.390625 -13.003906 10.390625 -11.453125 C 10.390625 -9.878906 10.898438 -8.585938 11.921875 -7.578125 C 12.953125 -6.566406 14.207031 -6.0625 15.6875 -6.0625 C 17.207031 -6.0625 18.476562 -6.566406 19.5 -7.578125 Z M 19.5 -7.578125 "/></g></g></g><g fill="#000000" fill-opacity="1"><g transform="translate(264.566044, 191.953886)"><g><path d="M 12.609375 -23.53125 C 13.921875 -23.53125 15.210938 -23.378906 16.484375 -23.078125 C 17.765625 -22.785156 18.71875 -22.492188 19.34375 -22.203125 L 20.28125 -21.75 L 17.703125 -16.578125 C 15.910156 -17.535156 14.210938 -18.015625 12.609375 -18.015625 C 11.722656 -18.015625 11.09375 -17.914062 10.71875 -17.71875 C 10.34375 -17.53125 10.15625 -17.164062 10.15625 -16.625 C 10.15625 -16.507812 10.171875 -16.390625 10.203125 -16.265625 C 10.234375 -16.148438 10.289062 -16.039062 10.375 -15.9375 C 10.46875 -15.832031 10.550781 -15.742188 10.625 -15.671875 C 10.707031 -15.597656 10.835938 -15.515625 11.015625 -15.421875 C 11.191406 -15.335938 11.332031 -15.269531 11.4375 -15.21875 C 11.539062 -15.175781 11.707031 -15.109375 11.9375 -15.015625 C 12.175781 -14.929688 12.351562 -14.863281 12.46875 -14.8125 C 12.59375 -14.769531 12.796875 -14.703125 13.078125 -14.609375 C 13.359375 -14.523438 13.578125 -14.46875 13.734375 -14.4375 C 14.648438 -14.175781 15.445312 -13.878906 16.125 -13.546875 C 16.8125 -13.222656 17.535156 -12.78125 18.296875 -12.21875 C 19.054688 -11.65625 19.644531 -10.941406 20.0625 -10.078125 C 20.476562 -9.210938 20.6875 -8.226562 20.6875 -7.125 C 20.6875 -1.925781 17.078125 0.671875 9.859375 0.671875 C 8.222656 0.671875 6.664062 0.421875 5.1875 -0.078125 C 3.71875 -0.585938 2.65625 -1.097656 2 -1.609375 L 1.03125 -2.40625 L 4.234375 -7.796875 C 4.472656 -7.585938 4.785156 -7.34375 5.171875 -7.0625 C 5.554688 -6.78125 6.253906 -6.394531 7.265625 -5.90625 C 8.273438 -5.414062 9.148438 -5.171875 9.890625 -5.171875 C 11.523438 -5.171875 12.34375 -5.722656 12.34375 -6.828125 C 12.34375 -7.328125 12.132812 -7.71875 11.71875 -8 C 11.300781 -8.28125 10.59375 -8.597656 9.59375 -8.953125 C 8.601562 -9.316406 7.828125 -9.644531 7.265625 -9.9375 C 5.835938 -10.6875 4.707031 -11.523438 3.875 -12.453125 C 3.039062 -13.390625 2.625 -14.632812 2.625 -16.1875 C 2.625 -18.5 3.523438 -20.300781 5.328125 -21.59375 C 7.128906 -22.882812 9.554688 -23.53125 12.609375 -23.53125 Z M 12.609375 -23.53125 "/></g></g></g><g fill="#000000" fill-opacity="1"><g transform="translate(282.704873, 191.953886)"><g><path d="M 10.125 -22.875 L 10.125 -11.984375 C 10.125 -9.734375 10.460938 -8.128906 11.140625 -7.171875 C 11.828125 -6.222656 12.988281 -5.75 14.625 -5.75 C 16.257812 -5.75 17.414062 -6.222656 18.09375 -7.171875 C 18.78125 -8.128906 19.125 -9.734375 19.125 -11.984375 L 19.125 -22.875 L 27.015625 -22.875 L 27.015625 -10.078125 C 27.015625 -6.273438 26.023438 -3.53125 24.046875 -1.84375 C 22.066406 -0.164062 18.921875 0.671875 14.609375 0.671875 C 10.304688 0.671875 7.164062 -0.164062 5.1875 -1.84375 C 3.21875 -3.53125 2.234375 -6.273438 2.234375 -10.078125 L 2.234375 -22.875 Z M 10.125 -22.875 "/></g></g></g><g fill="#000000" fill-opacity="1"><g transform="translate(308.152887, 191.953886)"><g><path d="M 2.671875 0 L 2.671875 -38.34375 L 10.5625 -38.34375 L 10.5625 0 Z M 2.671875 0 "/></g></g></g><g fill="#000000" fill-opacity="1"><g transform="translate(317.600887, 191.953886)"><g><path d="M 25.8125 -10.34375 L 9.234375 -10.34375 C 9.234375 -8.738281 9.75 -7.546875 10.78125 -6.765625 C 11.820312 -5.992188 12.953125 -5.609375 14.171875 -5.609375 C 15.453125 -5.609375 16.460938 -5.78125 17.203125 -6.125 C 17.953125 -6.46875 18.800781 -7.144531 19.75 -8.15625 L 25.453125 -5.3125 C 23.078125 -1.320312 19.125 0.671875 13.59375 0.671875 C 10.144531 0.671875 7.1875 -0.507812 4.71875 -2.875 C 2.257812 -5.238281 1.03125 -8.082031 1.03125 -11.40625 C 1.03125 -14.738281 2.257812 -17.59375 4.71875 -19.96875 C 7.1875 -22.34375 10.144531 -23.53125 13.59375 -23.53125 C 17.21875 -23.53125 20.164062 -22.484375 22.4375 -20.390625 C 24.71875 -18.296875 25.859375 -15.300781 25.859375 -11.40625 C 25.859375 -10.875 25.84375 -10.519531 25.8125 -10.34375 Z M 9.453125 -14.703125 L 18.140625 -14.703125 C 17.960938 -15.898438 17.492188 -16.816406 16.734375 -17.453125 C 15.984375 -18.085938 15.007812 -18.40625 13.8125 -18.40625 C 12.507812 -18.40625 11.472656 -18.0625 10.703125 -17.375 C 9.929688 -16.695312 9.515625 -15.804688 9.453125 -14.703125 Z M 9.453125 -14.703125 "/></g></g></g><g fill="#000000" fill-opacity="1"><g transform="translate(340.686802, 191.953886)"><g/></g></g><g fill="#000000" fill-opacity="1"><g transform="translate(349.065161, 191.953886)"><g><path d="M 7.75 -9.546875 C 9.175781 -9.546875 10.390625 -9.046875 11.390625 -8.046875 C 12.390625 -7.046875 12.890625 -5.832031 12.890625 -4.40625 C 12.890625 -3.007812 12.390625 -1.8125 11.390625 -0.8125 C 10.390625 0.175781 9.175781 0.671875 7.75 0.671875 C 6.351562 0.671875 5.15625 0.175781 4.15625 -0.8125 C 3.164062 -1.8125 2.671875 -3.007812 2.671875 -4.40625 C 2.671875 -5.832031 3.164062 -7.046875 4.15625 -8.046875 C 5.15625 -9.046875 6.351562 -9.546875 7.75 -9.546875 Z M 7.75 -9.546875 "/></g></g></g></svg>