<svg xmlns="http://www.w3.org/2000/svg" xmlns:xlink="http://www.w3.org/1999/xlink" width="500" zoomAndPan="magnify" viewBox="0 0 375 374.999991" height="500" preserveAspectRatio="xMidYMid meet" version="1.0"><defs><clipPath id="acafd3b60d"><path d="M 187.5 0 C 83.945312 0 0 83.945312 0 187.5 C 0 291.054688 83.945312 375 187.5 375 C 291.054688 375 375 291.054688 375 187.5 C 375 83.945312 291.054688 0 187.5 0 Z M 187.5 0 " clip-rule="nonzero"/></clipPath><clipPath id="ff71c9a79d"><path d="M 151 75 L 320 75 L 320 250 L 151 250 Z M 151 75 " clip-rule="nonzero"/></clipPath><clipPath id="79ab7bbd88"><path d="M 127.796875 92.210938 L 315.179688 53.945312 L 351.34375 231.039062 L 163.960938 269.304688 Z M 127.796875 92.210938 " clip-rule="nonzero"/></clipPath><clipPath id="27cf908308"><path d="M 127.796875 92.210938 L 315.179688 53.945312 L 351.34375 231.039062 L 163.960938 269.304688 Z M 127.796875 92.210938 " clip-rule="nonzero"/></clipPath><clipPath id="2f3b750a1e"><path d="M 40 175 L 168 175 L 168 264 L 40 264 Z M 40 175 " clip-rule="nonzero"/></clipPath><clipPath id="63a2c4a1e7"><path d="M 37.5 172.761719 L 159.078125 159.972656 L 171.242188 275.585938 L 49.660156 288.375 Z M 37.5 172.761719 " clip-rule="nonzero"/></clipPath><clipPath id="e32ffe3968"><path d="M 159.125 159.96875 L 37.546875 172.757812 L 49.707031 288.367188 L 171.289062 275.578125 Z M 159.125 159.96875 " clip-rule="nonzero"/></clipPath></defs><g clip-path="url(#acafd3b60d)"><rect x="-37.5" width="450" fill="#000000" y="-37.499999" height="449.999989" fill-opacity="1"/></g><g clip-path="url(#ff71c9a79d)"><g clip-path="url(#79ab7bbd88)"><g clip-path="url(#27cf908308)"><path fill="#00bf63" d="M 279.78125 94.058594 C 191.355469 111.699219 152.332031 162.527344 165.664062 248.523438 C 165.832031 249.601562 164.273438 249.984375 163.90625 248.953125 C 154.285156 221.933594 149.867188 196.417969 152.445312 172.925781 C 160.960938 95.394531 248.148438 67.648438 316.101562 77.757812 C 319.488281 78.261719 320.953125 82.1875 318.761719 84.816406 C 277.460938 134.238281 306.105469 240.261719 176.519531 218.242188 C 183.402344 156.273438 214.496094 112.394531 279.78125 94.058594 " fill-opacity="1" fill-rule="evenodd"/></g></g></g><g clip-path="url(#2f3b750a1e)"><g clip-path="url(#63a2c4a1e7)"><g clip-path="url(#e32ffe3968)"><path fill="#00bf63" d="M 66.867188 190.507812 C 124.15625 184.21875 157.753906 207.839844 166.238281 263.164062 C 166.34375 263.859375 167.367188 263.789062 167.390625 263.085938 C 168.035156 244.652344 165.800781 228.148438 159.691406 214.242188 C 139.53125 168.339844 81.039062 168.191406 41.585938 187.539062 C 39.617188 188.503906 39.484375 191.195312 41.328125 192.382812 C 76.039062 214.703125 79.058594 285.273438 153.773438 246.691406 C 137.613281 210.015625 110.191406 189.125 66.867188 190.507812 " fill-opacity="1" fill-rule="evenodd"/></g></g></g></svg>